<svg width="131" height="40" viewBox="0 0 131 40" fill="none" xmlns="http://www.w3.org/2000/svg">
<path d="M19.9999 40C31.0456 40 39.9999 31.0457 39.9999 20C39.9999 8.9543 31.0456 0 19.9999 0C8.95424 0 -6.10352e-05 8.9543 -6.10352e-05 20C-6.10352e-05 31.0457 8.95424 40 19.9999 40Z" fill="white" fill-opacity="0.1"/>
<path d="M18.8424 28.0463C14.9124 27.4707 11.8964 24.0828 11.8964 19.9891C11.8964 15.8954 14.9124 12.5075 18.8424 11.9322V7.69238C12.5855 8.29084 7.69232 13.5677 7.69232 19.9891C7.69232 26.4104 12.5855 31.687 18.8424 32.2858V28.0463Z" fill="white"/>
<path d="M26.9983 12L26.8891 12.3711V23.1393L26.9983 23.2483L31.9968 20.2937L26.9983 12Z" fill="white"/>
<path d="M26.9984 12L21.9999 20.2937L26.9984 23.2483V18.0217V12Z" fill="white"/>
<path d="M26.9986 24.8742L26.937 24.9492V28.7851L26.9986 28.9648L32 21.9211L26.9986 24.8742Z" fill="white"/>
<path d="M26.9984 28.9648V24.8742L21.9999 21.9211L26.9984 28.9648Z" fill="white"/>
<path d="M26.9984 23.2482L31.9968 20.2937L26.9984 18.0217V23.2482Z" fill="white"/>
<path d="M21.9999 20.2937L26.9983 23.2482V18.0217L21.9999 20.2937Z" fill="white"/>
<path d="M58.836 27C58.716 27 58.614 26.958 58.53 26.874C58.446 26.79 58.404 26.688 58.404 26.568V14.85C58.404 14.718 58.446 14.61 58.53 14.526C58.614 14.442 58.716 14.4 58.836 14.4H63.66C64.596 14.4 65.412 14.55 66.108 14.85C66.804 15.138 67.344 15.582 67.728 16.182C68.112 16.77 68.304 17.508 68.304 18.396C68.304 19.296 68.112 20.04 67.728 20.628C67.344 21.204 66.804 21.636 66.108 21.924C65.412 22.212 64.596 22.356 63.66 22.356H60.978V26.568C60.978 26.688 60.936 26.79 60.852 26.874C60.78 26.958 60.678 27 60.546 27H58.836ZM60.942 20.358H63.57C64.266 20.358 64.8 20.196 65.172 19.872C65.544 19.536 65.73 19.044 65.73 18.396C65.73 17.796 65.556 17.316 65.208 16.956C64.86 16.584 64.314 16.398 63.57 16.398H60.942V20.358ZM70.7012 27C70.5812 27 70.4792 26.964 70.3952 26.892C70.3112 26.808 70.2692 26.7 70.2692 26.568V14.85C70.2692 14.718 70.3112 14.61 70.3952 14.526C70.4792 14.442 70.5812 14.4 70.7012 14.4H72.3392C72.4712 14.4 72.5732 14.442 72.6452 14.526C72.7292 14.61 72.7712 14.718 72.7712 14.85V19.494H78.0812V14.85C78.0812 14.718 78.1232 14.61 78.2072 14.526C78.2912 14.442 78.3932 14.4 78.5132 14.4H80.1332C80.2652 14.4 80.3732 14.442 80.4572 14.526C80.5412 14.61 80.5832 14.718 80.5832 14.85V26.568C80.5832 26.688 80.5412 26.79 80.4572 26.874C80.3732 26.958 80.2652 27 80.1332 27H78.5132C78.3932 27 78.2912 26.958 78.2072 26.874C78.1232 26.79 78.0812 26.688 78.0812 26.568V21.744H72.7712V26.568C72.7712 26.688 72.7292 26.79 72.6452 26.874C72.5732 26.958 72.4712 27 72.3392 27H70.7012ZM83.8145 27C83.6945 27 83.5925 26.958 83.5085 26.874C83.4245 26.79 83.3825 26.688 83.3825 26.568V14.85C83.3825 14.718 83.4245 14.61 83.5085 14.526C83.5925 14.442 83.6945 14.4 83.8145 14.4H91.7345C91.8665 14.4 91.9745 14.442 92.0585 14.526C92.1425 14.61 92.1845 14.718 92.1845 14.85V16.038C92.1845 16.158 92.1425 16.26 92.0585 16.344C91.9745 16.428 91.8665 16.47 91.7345 16.47H85.8125V19.656H91.3385C91.4705 19.656 91.5785 19.698 91.6625 19.782C91.7465 19.854 91.7885 19.956 91.7885 20.088V21.204C91.7885 21.336 91.7465 21.444 91.6625 21.528C91.5785 21.6 91.4705 21.636 91.3385 21.636H85.8125V24.93H91.8785C92.0105 24.93 92.1185 24.972 92.2025 25.056C92.2865 25.14 92.3285 25.248 92.3285 25.38V26.568C92.3285 26.688 92.2865 26.79 92.2025 26.874C92.1185 26.958 92.0105 27 91.8785 27H83.8145ZM95.0298 27C94.8978 27 94.7898 26.958 94.7058 26.874C94.6218 26.79 94.5798 26.688 94.5798 26.568V14.85C94.5798 14.718 94.6218 14.61 94.7058 14.526C94.7898 14.442 94.8978 14.4 95.0298 14.4H96.4518C96.6198 14.4 96.7458 14.448 96.8298 14.544C96.9138 14.628 96.9678 14.694 96.9918 14.742L100.466 21.222L103.976 14.742C104 14.694 104.054 14.628 104.138 14.544C104.222 14.448 104.348 14.4 104.516 14.4H105.92C106.052 14.4 106.16 14.442 106.244 14.526C106.328 14.61 106.37 14.718 106.37 14.85V26.568C106.37 26.688 106.328 26.79 106.244 26.874C106.16 26.958 106.052 27 105.92 27H104.408C104.276 27 104.168 26.958 104.084 26.874C104.012 26.79 103.976 26.688 103.976 26.568V18.774L101.456 23.58C101.396 23.688 101.318 23.784 101.222 23.868C101.126 23.94 101 23.976 100.844 23.976H100.106C99.9378 23.976 99.8058 23.94 99.7098 23.868C99.6258 23.784 99.5538 23.688 99.4938 23.58L96.9738 18.774V26.568C96.9738 26.688 96.9318 26.79 96.8478 26.874C96.7638 26.958 96.6618 27 96.5418 27H95.0298ZM109.602 27C109.482 27 109.38 26.958 109.296 26.874C109.212 26.79 109.17 26.688 109.17 26.568V14.85C109.17 14.718 109.212 14.61 109.296 14.526C109.38 14.442 109.482 14.4 109.602 14.4H117.522C117.654 14.4 117.762 14.442 117.846 14.526C117.93 14.61 117.972 14.718 117.972 14.85V16.038C117.972 16.158 117.93 16.26 117.846 16.344C117.762 16.428 117.654 16.47 117.522 16.47H111.6V19.656H117.126C117.258 19.656 117.366 19.698 117.45 19.782C117.534 19.854 117.576 19.956 117.576 20.088V21.204C117.576 21.336 117.534 21.444 117.45 21.528C117.366 21.6 117.258 21.636 117.126 21.636H111.6V24.93H117.666C117.798 24.93 117.906 24.972 117.99 25.056C118.074 25.14 118.116 25.248 118.116 25.38V26.568C118.116 26.688 118.074 26.79 117.99 26.874C117.906 26.958 117.798 27 117.666 27H109.602ZM119.665 27C119.557 27 119.467 26.964 119.395 26.892C119.323 26.82 119.287 26.73 119.287 26.622C119.287 26.586 119.293 26.55 119.305 26.514C119.317 26.478 119.329 26.442 119.341 26.406L123.373 20.574L119.593 14.994C119.557 14.922 119.539 14.85 119.539 14.778C119.539 14.67 119.575 14.58 119.647 14.508C119.719 14.436 119.803 14.4 119.899 14.4H121.753C121.897 14.4 122.011 14.436 122.095 14.508C122.179 14.58 122.251 14.658 122.311 14.742L124.957 18.63L127.621 14.742C127.669 14.658 127.735 14.58 127.819 14.508C127.915 14.436 128.035 14.4 128.179 14.4H129.925C130.033 14.4 130.123 14.436 130.195 14.508C130.267 14.58 130.303 14.67 130.303 14.778C130.303 14.85 130.279 14.922 130.231 14.994L126.469 20.574L130.501 26.406C130.525 26.442 130.543 26.478 130.555 26.514C130.567 26.55 130.573 26.586 130.573 26.622C130.573 26.73 130.531 26.82 130.447 26.892C130.375 26.964 130.291 27 130.195 27H128.287C128.143 27 128.029 26.964 127.945 26.892C127.861 26.82 127.795 26.748 127.747 26.676L124.867 22.608L122.041 26.676C121.993 26.748 121.927 26.82 121.843 26.892C121.759 26.964 121.639 27 121.483 27H119.665Z" fill="white"/>
</svg>
